<svg width="74" height="58" xmlns="http://www.w3.org/2000/svg">
 <title/>

 <desc/>
 <g>
  <title>background</title>
  <rect fill="none" id="canvas_background" height="60" width="76" y="-1" x="-1"/>
 </g>
 <g>
  <title>Layer 1</title>
  <path stroke="null" id="quote2" fill="#948677" d="m72.15439,39.4099c-0.489086,-1.506075 -1.337224,-2.885997 -2.517242,-4.133943c-1.236301,-1.30423 -2.860766,-2.313456 -4.875336,-3.043203c-2.01651,-0.723925 -4.605562,-1.09074 -7.796268,-1.09074l-4.329966,0c0.516258,-5.329487 2.414378,-9.86518 5.698243,-13.614841c3.278042,-3.738016 7.823439,-7.027704 13.634249,-9.849654l-3.524526,-5.461463c-7.650706,3.258634 -14.197087,8.025284 -19.63526,14.321299c-5.436232,6.301837 -8.143674,12.54545 -8.143674,18.738602c0,6.653126 1.570122,11.871986 4.735597,15.639115c3.165475,3.767129 7.699227,5.6439 13.593492,5.6439c3.739957,0 6.988887,-1.247946 9.752613,-3.741898c2.759844,-2.49007 4.143647,-5.40712 4.143647,-8.733683c0,-1.605057 -0.242602,-3.167416 -0.73557,-4.673491m-39.584933,0c-0.492968,-1.506075 -1.339165,-2.885997 -2.521123,-4.133943c-1.23242,-1.30423 -2.858826,-2.313456 -4.875336,-3.043203c-2.012629,-0.723925 -4.60168,-1.09074 -7.794327,-1.09074l-4.331907,0c0.518199,-5.329487 2.414378,-9.86518 5.696302,-13.614841c3.279983,-3.738016 7.829262,-7.027704 13.63619,-9.849654l-3.522585,-5.461463c-7.652647,3.258634 -14.195146,8.025284 -19.63526,14.321299c-5.436232,6.301837 -8.141733,12.54545 -8.141733,18.738602c0,6.653126 1.56624,11.871986 4.733656,15.639115c3.161593,3.767129 7.695345,5.6439 13.593492,5.6439c3.738016,0 6.990828,-1.247946 9.754553,-3.741898c2.759844,-2.49007 4.141707,-5.40712 4.141707,-8.733683c0,-1.605057 -0.246484,-3.167416 -0.733629,-4.673491"/>
 </g>
</svg>